<mxfile host="Electron" agent="Mozilla/5.0 (Windows NT 10.0; Win64; x64) AppleWebKit/537.36 (KHTML, like Gecko) draw.io/28.0.6 Chrome/138.0.7204.100 Electron/37.2.3 Safari/537.36" version="28.0.6">
  <diagram name="Page-1" id="NpeXiH6O-Gav8ROJRLpp">
    <mxGraphModel dx="1435" dy="849" grid="1" gridSize="10" guides="1" tooltips="1" connect="1" arrows="1" fold="1" page="1" pageScale="1" pageWidth="1100" pageHeight="850" math="0" shadow="0">
      <root>
        <mxCell id="0" />
        <mxCell id="1" parent="0" />
        <mxCell id="-DNp5nfZ291V3epCE0QK-20" value="" style="rounded=0;whiteSpace=wrap;html=1;fillColor=default;" vertex="1" parent="1">
          <mxGeometry x="3" width="947" height="860" as="geometry" />
        </mxCell>
        <mxCell id="ziV3n6eVbt5drU0zPqzG-4" value="" style="rounded=0;whiteSpace=wrap;html=1;fillColor=none;dashed=1;strokeColor=#606060;strokeWidth=2;" parent="1" vertex="1">
          <mxGeometry x="250" y="241" width="670" height="609" as="geometry" />
        </mxCell>
        <mxCell id="ziV3n6eVbt5drU0zPqzG-11" value="" style="rounded=0;whiteSpace=wrap;html=1;fillColor=none;strokeColor=#FFD564;strokeWidth=1;" parent="1" vertex="1">
          <mxGeometry x="743.27" y="300" width="160" height="541" as="geometry" />
        </mxCell>
        <mxCell id="ziV3n6eVbt5drU0zPqzG-12" value="" style="rounded=0;whiteSpace=wrap;html=1;fillColor=none;strokeColor=#FFA571;strokeWidth=1;" parent="1" vertex="1">
          <mxGeometry x="263.27" y="300" width="160" height="541" as="geometry" />
        </mxCell>
        <mxCell id="ziV3n6eVbt5drU0zPqzG-13" value="" style="rounded=0;whiteSpace=wrap;html=1;fillColor=none;strokeColor=#B4B4B4;strokeWidth=1;" parent="1" vertex="1">
          <mxGeometry x="503.27" y="300" width="160" height="541" as="geometry" />
        </mxCell>
        <mxCell id="ziV3n6eVbt5drU0zPqzG-1" value="&lt;font style=&quot;font-size: 70px;&quot;&gt;&lt;b style=&quot;&quot;&gt;Data Flow&amp;nbsp;&lt;/b&gt;&lt;/font&gt;" style="text;html=1;align=center;verticalAlign=middle;resizable=0;points=[];autosize=1;strokeColor=none;fillColor=none;" parent="1" vertex="1">
          <mxGeometry x="234.76999999999998" width="370" height="100" as="geometry" />
        </mxCell>
        <mxCell id="ziV3n6eVbt5drU0zPqzG-2" value="" style="rounded=0;whiteSpace=wrap;html=1;fillColor=none;dashed=1;strokeColor=#606060;strokeWidth=2;" parent="1" vertex="1">
          <mxGeometry x="23" y="241" width="160" height="609" as="geometry" />
        </mxCell>
        <mxCell id="ziV3n6eVbt5drU0zPqzG-25" value="ERP" style="group;fontStyle=1;fontSize=16;" parent="1" vertex="1" connectable="0">
          <mxGeometry x="43" y="639.38" width="120" height="90.25" as="geometry" />
        </mxCell>
        <mxCell id="ziV3n6eVbt5drU0zPqzG-22" value="&lt;b&gt;ERP&lt;/b&gt;" style="image;aspect=fixed;html=1;points=[];align=center;fontSize=14;image=img/lib/azure2/general/Folder_Blank.svg;" parent="ziV3n6eVbt5drU0zPqzG-25" vertex="1">
          <mxGeometry width="87.97349647058826" height="71.40705882352943" as="geometry" />
        </mxCell>
        <mxCell id="ziV3n6eVbt5drU0zPqzG-23" value="" style="image;aspect=fixed;html=1;points=[];align=center;fontSize=14;image=img/lib/azure2/general/File.svg;" parent="ziV3n6eVbt5drU0zPqzG-25" vertex="1">
          <mxGeometry x="77.22725012431626" y="40.436540880503145" width="37.420716981132074" height="46.105207547169805" as="geometry" />
        </mxCell>
        <mxCell id="ziV3n6eVbt5drU0zPqzG-35" value="" style="group" parent="1" vertex="1" connectable="0">
          <mxGeometry x="43.99999999999999" y="396" width="120" height="80" as="geometry" />
        </mxCell>
        <mxCell id="ziV3n6eVbt5drU0zPqzG-36" value="&lt;b&gt;CRM&lt;/b&gt;" style="image;aspect=fixed;html=1;points=[];align=center;fontSize=14;image=img/lib/azure2/general/Folder_Blank.svg;" parent="ziV3n6eVbt5drU0zPqzG-35" vertex="1">
          <mxGeometry width="83.48611764705885" height="67.76470588235296" as="geometry" />
        </mxCell>
        <mxCell id="ziV3n6eVbt5drU0zPqzG-37" value="" style="image;aspect=fixed;html=1;points=[];align=center;fontSize=14;image=img/lib/azure2/general/File.svg;" parent="ziV3n6eVbt5drU0zPqzG-35" vertex="1">
          <mxGeometry x="77.22725012431626" y="35.84" width="35.84" height="44.16" as="geometry" />
        </mxCell>
        <mxCell id="ziV3n6eVbt5drU0zPqzG-5" value="&lt;font style=&quot;font-size: 24px;&quot;&gt;&lt;b&gt;Data Warehouse&lt;/b&gt;&lt;/font&gt;" style="rounded=0;whiteSpace=wrap;html=1;strokeColor=light-dark(#fbfbfb, #ededed);fillColor=default;fillStyle=solid;" parent="1" vertex="1">
          <mxGeometry x="443.27" y="220" width="199.99999999999997" height="40" as="geometry" />
        </mxCell>
        <mxCell id="ziV3n6eVbt5drU0zPqzG-8" value="&lt;font style=&quot;font-size: 18px;&quot;&gt;&lt;b&gt;Gold Layer&lt;/b&gt;&lt;/font&gt;" style="rounded=0;whiteSpace=wrap;html=1;fillColor=#FFD564;strokeColor=light-dark(#FFD564,#FFD564);" parent="1" vertex="1">
          <mxGeometry x="743.27" y="260" width="160" height="40" as="geometry" />
        </mxCell>
        <mxCell id="ziV3n6eVbt5drU0zPqzG-9" value="&lt;font style=&quot;font-size: 18px;&quot;&gt;&lt;b style=&quot;&quot;&gt;Silver Layer&lt;/b&gt;&lt;/font&gt;" style="rounded=0;whiteSpace=wrap;html=1;fillColor=#B4B4B4;strokeColor=#B4B4B4;" parent="1" vertex="1">
          <mxGeometry x="503" y="260" width="160" height="40" as="geometry" />
        </mxCell>
        <mxCell id="ziV3n6eVbt5drU0zPqzG-10" value="&lt;font style=&quot;font-size: 18px;&quot;&gt;&lt;b style=&quot;&quot;&gt;Bronze Layer&lt;/b&gt;&lt;/font&gt;" style="rounded=0;whiteSpace=wrap;html=1;fillColor=#FFA571;strokeColor=#FFA571;" parent="1" vertex="1">
          <mxGeometry x="263" y="260" width="160" height="40" as="geometry" />
        </mxCell>
        <mxCell id="ziV3n6eVbt5drU0zPqzG-61" style="edgeStyle=orthogonalEdgeStyle;rounded=0;orthogonalLoop=1;jettySize=auto;html=1;exitX=0.5;exitY=1;exitDx=0;exitDy=0;fontSize=14;" parent="1" edge="1">
          <mxGeometry relative="1" as="geometry">
            <mxPoint x="343.27" y="723.5" as="sourcePoint" />
            <mxPoint x="343.27" y="723.5" as="targetPoint" />
          </mxGeometry>
        </mxCell>
        <mxCell id="ziV3n6eVbt5drU0zPqzG-118" value="&lt;span style=&quot;color: rgb(180, 180, 180); font-size: 18px;&quot;&gt;Charles Pugh&amp;nbsp;2025&lt;/span&gt;" style="text;html=1;align=center;verticalAlign=middle;whiteSpace=wrap;rounded=0;" parent="1" vertex="1">
          <mxGeometry x="770" y="90" width="170" height="30" as="geometry" />
        </mxCell>
        <mxCell id="ziV3n6eVbt5drU0zPqzG-119" value="&lt;span style=&quot;color: rgb(180, 180, 180); font-size: 18px;&quot;&gt;Data Warehouse Project&lt;span style=&quot;white-space: pre;&quot;&gt;&#x9;&lt;/span&gt;&lt;/span&gt;" style="text;html=1;align=center;verticalAlign=middle;whiteSpace=wrap;rounded=0;" parent="1" vertex="1">
          <mxGeometry x="13" y="90" width="207" height="30" as="geometry" />
        </mxCell>
        <mxCell id="ziV3n6eVbt5drU0zPqzG-123" value="" style="endArrow=none;html=1;rounded=0;" parent="1" edge="1">
          <mxGeometry width="50" height="50" relative="1" as="geometry">
            <mxPoint x="11.269999999999996" y="120" as="sourcePoint" />
            <mxPoint x="940" y="120" as="targetPoint" />
          </mxGeometry>
        </mxCell>
        <mxCell id="ziV3n6eVbt5drU0zPqzG-3" value="&lt;font style=&quot;font-size: 24px;&quot;&gt;&lt;b style=&quot;&quot;&gt;Sources&lt;/b&gt;&lt;/font&gt;" style="rounded=0;whiteSpace=wrap;html=1;strokeColor=none;fillColor=default;" parent="1" vertex="1">
          <mxGeometry x="53.269999999999996" y="220" width="100" height="40" as="geometry" />
        </mxCell>
        <mxCell id="-DNp5nfZ291V3epCE0QK-28" style="edgeStyle=orthogonalEdgeStyle;rounded=0;orthogonalLoop=1;jettySize=auto;html=1;strokeWidth=2;fontSize=14;" edge="1" parent="1" source="-DNp5nfZ291V3epCE0QK-1" target="-DNp5nfZ291V3epCE0QK-22">
          <mxGeometry relative="1" as="geometry" />
        </mxCell>
        <mxCell id="-DNp5nfZ291V3epCE0QK-1" value="crm_sales_details" style="rounded=0;whiteSpace=wrap;html=1;fillColor=#FFA571;strokeColor=none;fontSize=14;" vertex="1" parent="1">
          <mxGeometry x="274.77" y="370" width="137" height="39" as="geometry" />
        </mxCell>
        <mxCell id="-DNp5nfZ291V3epCE0QK-29" style="edgeStyle=orthogonalEdgeStyle;rounded=0;orthogonalLoop=1;jettySize=auto;html=1;strokeWidth=2;fontSize=14;" edge="1" parent="1" source="-DNp5nfZ291V3epCE0QK-2" target="-DNp5nfZ291V3epCE0QK-23">
          <mxGeometry relative="1" as="geometry" />
        </mxCell>
        <mxCell id="-DNp5nfZ291V3epCE0QK-2" value="crm_cust_info" style="rounded=0;whiteSpace=wrap;html=1;fillColor=#FFA571;strokeColor=none;fontSize=14;" vertex="1" parent="1">
          <mxGeometry x="274.77" y="417" width="137" height="39" as="geometry" />
        </mxCell>
        <mxCell id="-DNp5nfZ291V3epCE0QK-30" style="edgeStyle=orthogonalEdgeStyle;rounded=0;orthogonalLoop=1;jettySize=auto;html=1;strokeWidth=2;fontSize=14;" edge="1" parent="1" source="-DNp5nfZ291V3epCE0QK-3" target="-DNp5nfZ291V3epCE0QK-24">
          <mxGeometry relative="1" as="geometry" />
        </mxCell>
        <mxCell id="-DNp5nfZ291V3epCE0QK-3" value="crm_prd_info" style="rounded=0;whiteSpace=wrap;html=1;fillColor=#FFA571;strokeColor=none;fontSize=14;" vertex="1" parent="1">
          <mxGeometry x="274.77" y="464.5" width="137" height="39" as="geometry" />
        </mxCell>
        <mxCell id="-DNp5nfZ291V3epCE0QK-33" style="edgeStyle=orthogonalEdgeStyle;rounded=0;orthogonalLoop=1;jettySize=auto;html=1;entryX=0;entryY=0.5;entryDx=0;entryDy=0;strokeWidth=2;fontSize=14;" edge="1" parent="1" source="-DNp5nfZ291V3epCE0QK-5" target="-DNp5nfZ291V3epCE0QK-25">
          <mxGeometry relative="1" as="geometry" />
        </mxCell>
        <mxCell id="-DNp5nfZ291V3epCE0QK-5" value="erp_px_cat_g1v2" style="rounded=0;whiteSpace=wrap;html=1;fillColor=#FFA571;strokeColor=none;fontSize=14;" vertex="1" parent="1">
          <mxGeometry x="274.77" y="716" width="137" height="39" as="geometry" />
        </mxCell>
        <mxCell id="-DNp5nfZ291V3epCE0QK-32" style="edgeStyle=orthogonalEdgeStyle;rounded=0;orthogonalLoop=1;jettySize=auto;html=1;strokeWidth=2;fontSize=14;" edge="1" parent="1" source="-DNp5nfZ291V3epCE0QK-6" target="-DNp5nfZ291V3epCE0QK-26">
          <mxGeometry relative="1" as="geometry" />
        </mxCell>
        <mxCell id="-DNp5nfZ291V3epCE0QK-6" value="erp_loc_a101" style="rounded=0;whiteSpace=wrap;html=1;fillColor=#FFA571;strokeColor=none;fontSize=14;" vertex="1" parent="1">
          <mxGeometry x="274.77" y="665" width="137" height="39" as="geometry" />
        </mxCell>
        <mxCell id="-DNp5nfZ291V3epCE0QK-31" style="edgeStyle=orthogonalEdgeStyle;rounded=0;orthogonalLoop=1;jettySize=auto;html=1;strokeWidth=2;fontSize=14;" edge="1" parent="1" source="-DNp5nfZ291V3epCE0QK-7" target="-DNp5nfZ291V3epCE0QK-27">
          <mxGeometry relative="1" as="geometry" />
        </mxCell>
        <mxCell id="-DNp5nfZ291V3epCE0QK-7" value="erp_cust_az12" style="rounded=0;whiteSpace=wrap;html=1;fillColor=#FFA571;strokeColor=none;fontSize=14;" vertex="1" parent="1">
          <mxGeometry x="274.77" y="615" width="137" height="39" as="geometry" />
        </mxCell>
        <mxCell id="-DNp5nfZ291V3epCE0QK-13" style="edgeStyle=orthogonalEdgeStyle;rounded=0;orthogonalLoop=1;jettySize=auto;html=1;strokeWidth=2;" edge="1" parent="1" source="ziV3n6eVbt5drU0zPqzG-22" target="-DNp5nfZ291V3epCE0QK-6">
          <mxGeometry relative="1" as="geometry">
            <Array as="points">
              <mxPoint x="160" y="685" />
              <mxPoint x="160" y="685" />
            </Array>
          </mxGeometry>
        </mxCell>
        <mxCell id="-DNp5nfZ291V3epCE0QK-14" style="edgeStyle=orthogonalEdgeStyle;rounded=0;orthogonalLoop=1;jettySize=auto;html=1;strokeWidth=2;" edge="1" parent="1" source="ziV3n6eVbt5drU0zPqzG-22" target="-DNp5nfZ291V3epCE0QK-7">
          <mxGeometry relative="1" as="geometry">
            <Array as="points">
              <mxPoint x="203" y="685" />
              <mxPoint x="203" y="635" />
            </Array>
          </mxGeometry>
        </mxCell>
        <mxCell id="-DNp5nfZ291V3epCE0QK-15" style="edgeStyle=orthogonalEdgeStyle;rounded=0;orthogonalLoop=1;jettySize=auto;html=1;entryX=0;entryY=0.5;entryDx=0;entryDy=0;strokeWidth=2;" edge="1" parent="1" source="ziV3n6eVbt5drU0zPqzG-22" target="-DNp5nfZ291V3epCE0QK-5">
          <mxGeometry relative="1" as="geometry">
            <Array as="points">
              <mxPoint x="203" y="685" />
              <mxPoint x="203" y="736" />
            </Array>
          </mxGeometry>
        </mxCell>
        <mxCell id="-DNp5nfZ291V3epCE0QK-16" style="edgeStyle=orthogonalEdgeStyle;rounded=0;orthogonalLoop=1;jettySize=auto;html=1;strokeWidth=2;" edge="1" parent="1" source="ziV3n6eVbt5drU0zPqzG-36" target="-DNp5nfZ291V3epCE0QK-2">
          <mxGeometry relative="1" as="geometry">
            <Array as="points">
              <mxPoint x="230" y="437" />
              <mxPoint x="230" y="437" />
            </Array>
          </mxGeometry>
        </mxCell>
        <mxCell id="-DNp5nfZ291V3epCE0QK-17" style="edgeStyle=orthogonalEdgeStyle;rounded=0;orthogonalLoop=1;jettySize=auto;html=1;strokeWidth=2;" edge="1" parent="1">
          <mxGeometry relative="1" as="geometry">
            <mxPoint x="127.48611764705879" y="437" as="sourcePoint" />
            <mxPoint x="274.77" y="391" as="targetPoint" />
            <Array as="points">
              <mxPoint x="201" y="437" />
              <mxPoint x="201" y="391" />
            </Array>
          </mxGeometry>
        </mxCell>
        <mxCell id="-DNp5nfZ291V3epCE0QK-18" style="edgeStyle=orthogonalEdgeStyle;rounded=0;orthogonalLoop=1;jettySize=auto;html=1;entryX=0;entryY=0.75;entryDx=0;entryDy=0;strokeWidth=2;" edge="1" parent="1">
          <mxGeometry relative="1" as="geometry">
            <mxPoint x="127.48611764705879" y="437" as="sourcePoint" />
            <mxPoint x="274.77" y="494.75" as="targetPoint" />
            <Array as="points">
              <mxPoint x="201" y="437" />
              <mxPoint x="201" y="495" />
            </Array>
          </mxGeometry>
        </mxCell>
        <mxCell id="-DNp5nfZ291V3epCE0QK-19" value="&lt;b style=&quot;text-wrap-mode: nowrap;&quot;&gt;&lt;font style=&quot;font-size: 23px; color: rgb(96, 96, 96);&quot;&gt;(Data Lineage)&lt;/font&gt;&lt;/b&gt;" style="text;html=1;align=center;verticalAlign=middle;whiteSpace=wrap;rounded=0;" vertex="1" parent="1">
          <mxGeometry x="574.77" y="50" width="180" height="30" as="geometry" />
        </mxCell>
        <mxCell id="-DNp5nfZ291V3epCE0QK-22" value="crm_sales_details" style="rounded=0;whiteSpace=wrap;html=1;fillColor=#B4B4B4;strokeColor=none;fontSize=14;" vertex="1" parent="1">
          <mxGeometry x="514.77" y="370" width="137" height="39" as="geometry" />
        </mxCell>
        <mxCell id="-DNp5nfZ291V3epCE0QK-23" value="crm_cust_info" style="rounded=0;whiteSpace=wrap;html=1;fillColor=#B4B4B4;strokeColor=none;fontSize=14;" vertex="1" parent="1">
          <mxGeometry x="514.5" y="417" width="137" height="39" as="geometry" />
        </mxCell>
        <mxCell id="-DNp5nfZ291V3epCE0QK-24" value="crm_prd_info" style="rounded=0;whiteSpace=wrap;html=1;fillColor=#B4B4B4;strokeColor=none;fontSize=14;" vertex="1" parent="1">
          <mxGeometry x="514.5" y="464.5" width="137" height="39" as="geometry" />
        </mxCell>
        <mxCell id="-DNp5nfZ291V3epCE0QK-25" value="erp_px_cat_g1v2" style="rounded=0;whiteSpace=wrap;html=1;fillColor=#B4B4B4;strokeColor=none;fontSize=14;" vertex="1" parent="1">
          <mxGeometry x="514.5" y="716" width="137" height="39" as="geometry" />
        </mxCell>
        <mxCell id="-DNp5nfZ291V3epCE0QK-26" value="erp_loc_a101" style="rounded=0;whiteSpace=wrap;html=1;fillColor=#B4B4B4;strokeColor=none;fontSize=14;" vertex="1" parent="1">
          <mxGeometry x="514.5" y="665" width="137" height="39" as="geometry" />
        </mxCell>
        <mxCell id="-DNp5nfZ291V3epCE0QK-27" value="erp_cust_az12" style="rounded=0;whiteSpace=wrap;html=1;fillColor=#B4B4B4;strokeColor=none;fontSize=14;" vertex="1" parent="1">
          <mxGeometry x="514.5" y="615" width="137" height="39" as="geometry" />
        </mxCell>
        <mxCell id="-DNp5nfZ291V3epCE0QK-34" value="fact_sales" style="rounded=0;whiteSpace=wrap;html=1;fillColor=light-dark(#FFD564,#FFD564);strokeColor=none;fontSize=14;" vertex="1" parent="1">
          <mxGeometry x="754.77" y="417" width="137" height="39" as="geometry" />
        </mxCell>
        <mxCell id="-DNp5nfZ291V3epCE0QK-35" value="dim_customers" style="rounded=0;whiteSpace=wrap;html=1;fillColor=light-dark(#FFD564,#FFD564);strokeColor=none;fontSize=14;" vertex="1" parent="1">
          <mxGeometry x="754.77" y="551" width="137" height="39" as="geometry" />
        </mxCell>
        <mxCell id="-DNp5nfZ291V3epCE0QK-36" value="dim_products" style="rounded=0;whiteSpace=wrap;html=1;fillColor=light-dark(#FFD564,#FFD564);strokeColor=none;fontSize=14;" vertex="1" parent="1">
          <mxGeometry x="754.77" y="665" width="137" height="39" as="geometry" />
        </mxCell>
        <mxCell id="-DNp5nfZ291V3epCE0QK-41" value="" style="endArrow=classic;html=1;rounded=0;strokeWidth=2;entryX=0;entryY=0.5;entryDx=0;entryDy=0;" edge="1" parent="1" target="-DNp5nfZ291V3epCE0QK-34">
          <mxGeometry width="50" height="50" relative="1" as="geometry">
            <mxPoint x="651.5" y="391" as="sourcePoint" />
            <mxPoint x="721.5" y="456" as="targetPoint" />
          </mxGeometry>
        </mxCell>
        <mxCell id="-DNp5nfZ291V3epCE0QK-42" value="" style="endArrow=classic;html=1;rounded=0;strokeWidth=2;entryX=0;entryY=0.5;entryDx=0;entryDy=0;" edge="1" parent="1" target="-DNp5nfZ291V3epCE0QK-35">
          <mxGeometry width="50" height="50" relative="1" as="geometry">
            <mxPoint x="651.77" y="635" as="sourcePoint" />
            <mxPoint x="731.77" y="590" as="targetPoint" />
          </mxGeometry>
        </mxCell>
        <mxCell id="-DNp5nfZ291V3epCE0QK-43" value="" style="endArrow=classic;html=1;rounded=0;strokeWidth=2;entryX=0;entryY=0.5;entryDx=0;entryDy=0;" edge="1" parent="1" target="-DNp5nfZ291V3epCE0QK-36">
          <mxGeometry width="50" height="50" relative="1" as="geometry">
            <mxPoint x="651.5" y="738" as="sourcePoint" />
            <mxPoint x="731.5" y="713" as="targetPoint" />
          </mxGeometry>
        </mxCell>
        <mxCell id="-DNp5nfZ291V3epCE0QK-44" value="" style="endArrow=classic;html=1;rounded=0;strokeWidth=2;entryX=0;entryY=0.5;entryDx=0;entryDy=0;" edge="1" parent="1" target="-DNp5nfZ291V3epCE0QK-35">
          <mxGeometry width="50" height="50" relative="1" as="geometry">
            <mxPoint x="651.77" y="685" as="sourcePoint" />
            <mxPoint x="721.77" y="615" as="targetPoint" />
          </mxGeometry>
        </mxCell>
        <mxCell id="-DNp5nfZ291V3epCE0QK-45" value="" style="endArrow=classic;html=1;rounded=0;strokeWidth=2;entryX=0;entryY=0.5;entryDx=0;entryDy=0;" edge="1" parent="1" target="-DNp5nfZ291V3epCE0QK-36">
          <mxGeometry width="50" height="50" relative="1" as="geometry">
            <mxPoint x="651.5" y="486" as="sourcePoint" />
            <mxPoint x="721.5" y="551" as="targetPoint" />
          </mxGeometry>
        </mxCell>
        <mxCell id="-DNp5nfZ291V3epCE0QK-46" value="" style="endArrow=classic;html=1;rounded=0;strokeWidth=2;entryX=0;entryY=0.5;entryDx=0;entryDy=0;" edge="1" parent="1" target="-DNp5nfZ291V3epCE0QK-35">
          <mxGeometry width="50" height="50" relative="1" as="geometry">
            <mxPoint x="651.5" y="438.5" as="sourcePoint" />
            <mxPoint x="721.5" y="503.5" as="targetPoint" />
          </mxGeometry>
        </mxCell>
      </root>
    </mxGraphModel>
  </diagram>
</mxfile>
